<svg width="48" height="48" viewBox="0 0 48 48" fill="none" xmlns="http://www.w3.org/2000/svg">
<g clip-path="url(#clip0_17_1685)">
<path d="M39.9758 25.182C38.8607 23.74 37.1779 22.7496 34.9276 22.2112C37.7932 20.7495 39.0526 18.2687 38.7068 14.7683C38.5912 13.4989 38.2404 12.3988 37.6536 11.4664C37.0664 10.5337 36.2739 9.78391 35.2733 9.21669C34.2734 8.64876 33.186 8.21642 32.0134 7.91836C30.8406 7.6203 29.4941 7.40388 27.9748 7.2694V0L23.5328 0V7.06743C22.7636 7.06743 21.5906 7.08663 20.0138 7.12512V0L15.5712 0V7.2694C14.9364 7.2887 14.0038 7.2985 12.7731 7.2985L6.65771 7.2694V12.0004H9.85947C11.3211 12.0004 12.1769 12.6544 12.4268 13.9619V22.2411C12.6194 22.2411 12.7731 22.251 12.8886 22.2701H12.4268V33.8661C12.2731 34.8466 11.7155 35.3374 10.7539 35.3374H7.5523L6.65792 40.6164H12.4273C12.7928 40.6164 13.3213 40.6213 14.0139 40.63C14.7061 40.6397 15.2251 40.6445 15.5714 40.6445V48.0003H20.0147V40.731C20.8222 40.7507 21.9952 40.7601 23.5337 40.7601V48.0003H27.9758V40.6445C29.5531 40.5677 30.952 40.4243 32.1727 40.212C33.3939 39.9997 34.5625 39.6685 35.6776 39.2163C36.7927 38.7646 37.7252 38.2017 38.4751 37.5286C39.2254 36.8561 39.8451 36 40.3363 34.9613C40.826 33.9226 41.1389 32.7207 41.273 31.355C41.5241 28.6826 41.0912 26.6246 39.9758 25.182ZM20.1002 12.3168C20.2348 12.3168 20.6146 12.312 21.2397 12.3023C21.865 12.2924 22.384 12.2829 22.7974 12.2732C23.211 12.2637 23.7687 12.2877 24.4709 12.3454C25.1728 12.4031 25.7641 12.4802 26.2447 12.5762C26.7254 12.6721 27.2547 12.8309 27.8311 13.052C28.4085 13.273 28.8698 13.5424 29.2155 13.8596C29.562 14.1769 29.8552 14.5809 30.0951 15.0714C30.3358 15.5617 30.456 16.1242 30.456 16.7587C30.456 17.2972 30.3697 17.7877 30.1968 18.2303C30.0242 18.6725 29.7639 19.0428 29.4182 19.3409C29.0723 19.639 28.7159 19.8989 28.3504 20.1199C27.9854 20.3408 27.5186 20.5189 26.9515 20.6534C26.3845 20.788 25.8893 20.8938 25.4664 20.9706C25.0433 21.0476 24.5146 21.1006 23.8799 21.1293C23.245 21.158 22.7641 21.1776 22.4374 21.1871C22.1103 21.1966 21.6633 21.1966 21.0958 21.1871C20.5282 21.1776 20.1969 21.1726 20.1005 21.1726V12.3167H20.1002V12.3168ZM32.2307 31.9611C32.0475 32.4036 31.8123 32.7885 31.524 33.1157C31.2352 33.442 30.8552 33.7308 30.3843 33.9804C29.9135 34.2308 29.4563 34.4324 29.0143 34.5862C28.5718 34.7407 28.0379 34.8746 27.4135 34.9904C26.7877 35.1059 26.24 35.1871 25.7683 35.2355C25.2974 35.2837 24.7351 35.322 24.081 35.3511C23.4274 35.3794 22.9175 35.394 22.5522 35.394C22.1868 35.394 21.7251 35.3888 21.1674 35.3794C20.6094 35.3704 20.2539 35.3655 20.1 35.3655V25.615C20.2536 25.615 20.7104 25.6056 21.4702 25.586C22.2301 25.5666 22.85 25.5576 23.3308 25.5576C23.8116 25.5576 24.4753 25.586 25.3218 25.6441C26.1674 25.7014 26.879 25.7875 27.4565 25.9029C28.0332 26.0185 28.6625 26.1961 29.3457 26.4368C30.0283 26.6771 30.5814 26.9703 31.0047 27.3164C31.4278 27.6632 31.7834 28.1048 32.0717 28.6435C32.3608 29.1818 32.505 29.7973 32.505 30.4898C32.5049 31.0288 32.4136 31.5185 32.2307 31.9611Z" fill="#F7931B"/>
</g>
<defs>
<clipPath id="clip0_17_1685">
<rect width="48" height="48" fill="white"/>
</clipPath>
</defs>
</svg>
