<svg width="48" height="48" viewBox="0 0 48 48" fill="none" xmlns="http://www.w3.org/2000/svg">
<path fill-rule="evenodd" clip-rule="evenodd" d="M35.0312 23.3025C37.5881 23.6775 39.5456 24.615 40.904 26.115C42.2798 27.6597 43.0277 29.6673 42.9992 31.74C42.9992 34.8738 41.9438 37.4292 39.695 39.1587C37.4462 40.8879 34.2026 42 29.9612 42H13.2796V31.7142H20.6368V36.2142H29.3213C31.3079 36.2142 32.8049 35.6742 33.7997 34.8546C34.7945 34.035 35.2934 32.73 35.2934 31.2C35.2934 29.67 34.7882 28.635 33.7997 27.8346C32.8112 27.0342 31.3142 26.8929 29.3213 26.8929H4V21.1071H13.2764V6H29.4335C33.71 6 36.8672 6.55608 38.969 8.25C41.0705 9.94392 42.0878 12.0975 42.0878 15.2667C42.0989 17.1729 41.4395 19.0218 40.226 20.4867C39.0296 21.9621 37.2704 22.8846 35.0312 23.2479V23.3025ZM20.6368 21.0942H28.397C32.3858 21.0942 34.3787 19.5288 34.3787 16.4337C34.3787 13.3382 32.3858 11.7729 28.397 11.7729H20.6368V21.0942Z" fill="#F04086"/>
</svg>
