<svg width="48" height="48" viewBox="0 0 48 48" fill="none" xmlns="http://www.w3.org/2000/svg">
<path fill-rule="evenodd" clip-rule="evenodd" d="M24.0904 9.23071H13.7148V22.6813H7.38477V27.1647H13.7148V40.6153H24.0904C29.5668 40.6153 30.7469 40.0555 33.107 38.936C33.2902 38.8489 33.4805 38.7588 33.6805 38.6649C36.4568 37.3647 38.6146 35.5342 40.1533 33.1726C41.6923 30.8113 42.4617 28.0615 42.4617 24.923C42.4617 21.7845 41.6923 19.0347 40.1533 16.6734C38.6146 14.312 36.4568 12.4813 33.6805 11.181C30.9041 9.8808 27.7075 9.23071 24.0904 9.23071ZM21.4252 27.1647V34.6522H23.7096C27.0413 34.6522 29.6984 33.778 31.6817 32.0293C33.6647 30.2809 34.6562 27.912 34.6562 24.923C34.6562 21.934 33.6647 19.5654 31.6817 17.8167C29.6984 16.068 27.0413 15.1938 23.7096 15.1938H21.4252V22.6813H28.8021V27.1647H21.4252Z" fill="#C2A633"/>
</svg>
