<svg width="48" height="48" viewBox="0 0 48 48" fill="none" xmlns="http://www.w3.org/2000/svg">
<path d="M28.9589 20.1533L36.7358 17.6886C37.2589 17.5229 37.4575 16.887 37.1216 16.453L24.6239 0.306222C24.3079 -0.102074 23.6915 -0.102074 23.3755 0.306222L10.8779 16.4531C10.5421 16.887 10.7406 17.5229 11.2637 17.6887L19.0406 20.1534L11.3732 22.5833C11.0059 22.6998 11.0059 23.2195 11.3732 23.3358L19.0406 25.7658L11.3732 28.1957C11.0059 28.3121 11.0059 28.8318 11.3732 28.9482C24.9122 33.239 23.8975 32.9823 24.2382 32.8743L36.6264 28.9482C36.9936 28.8317 36.9936 28.312 36.6264 28.1957L28.9589 25.7658L36.6264 23.3358C36.9936 23.2194 36.9936 22.6997 36.6264 22.5833L28.9589 20.1533Z" fill="#B4B5C6"/>
<path d="M11.0559 32.9784L23.3947 47.717C23.7103 48.094 24.2898 48.094 24.6052 47.717L36.944 32.9784C37.1975 32.6757 36.8985 32.2295 36.5221 32.3488C23.0965 36.6037 24.1022 36.3499 23.7615 36.2418L11.4779 32.3488C11.1014 32.2296 10.8025 32.6757 11.0559 32.9784Z" fill="#B4B5C6"/>
<path d="M36.7363 17.6886C27.4414 20.6344 30.0518 19.807 24 21.7252V0C24.2269 0 24.4539 0.0966966 24.6118 0.291077L37.1241 16.4562C37.4566 16.8903 37.2583 17.5228 36.7363 17.6886Z" fill="#EEEFFC"/>
<path d="M36.6265 23.3354C36.323 23.4316 27.9266 26.0929 23.9997 27.3375C18.4636 25.5828 12.3746 23.6529 11.3729 23.3354C11.0059 23.219 11.0059 22.7 11.3729 22.5836L19.0406 20.1533L23.9997 21.7251L28.9589 20.1533L36.6265 22.5836C36.9936 22.7 36.9936 23.219 36.6265 23.3354Z" fill="#EEEFFC"/>
<path d="M36.6265 28.9478C23.0958 33.236 24.1025 32.9819 23.761 32.8739L11.3729 28.9478C11.0059 28.8314 11.0059 28.3124 11.3729 28.1959L19.0406 25.7657L23.9997 27.3375L28.9589 25.7657L36.6265 28.1959C36.9936 28.3124 36.9936 28.8314 36.6265 28.9478Z" fill="#EEEFFC"/>
<path d="M36.9435 32.9785L24.6048 47.7168C24.448 47.9053 24.224 48 24 48V36.3174C24.3788 36.1969 36.1841 32.4561 36.5222 32.3489C36.8982 32.2295 37.1971 32.6755 36.9435 32.9785Z" fill="#EEEFFC"/>
</svg>
