<svg width="33" height="32" viewBox="0 0 33 32" fill="none" xmlns="http://www.w3.org/2000/svg">
<path fill-rule="evenodd" clip-rule="evenodd" d="M16.3335 0C7.49694 0 0.333496 7.16344 0.333496 16C0.333496 24.8366 7.49694 32 16.3335 32C25.1701 32 32.3335 24.8366 32.3335 16C32.3335 7.16344 25.1701 0 16.3335 0ZM12.8158 7.51835C13.7261 7.47693 14.0169 7.4668 16.3344 7.4668H16.3318C18.65 7.4668 18.9398 7.47693 19.85 7.51835C20.7585 7.55995 21.3789 7.70378 21.923 7.9148C22.4847 8.13258 22.9594 8.42414 23.4341 8.89881C23.9087 9.37313 24.2003 9.84922 24.419 10.4105C24.6288 10.9531 24.7728 11.5732 24.8154 12.4816C24.8563 13.3918 24.867 13.6827 24.867 16.0002C24.867 18.3178 24.8563 18.6079 24.8154 19.5181C24.7728 20.4262 24.6288 21.0465 24.419 21.5893C24.2003 22.1503 23.9087 22.6264 23.4341 23.1007C22.9599 23.5754 22.4846 23.8677 21.9235 24.0856C21.3805 24.2967 20.7597 24.4405 19.8513 24.4821C18.9411 24.5235 18.6511 24.5336 16.3334 24.5336C14.016 24.5336 13.7254 24.5235 12.8151 24.4821C11.9068 24.4405 11.2866 24.2967 10.7436 24.0856C10.1827 23.8677 9.70664 23.5754 9.23251 23.1007C8.75801 22.6264 8.46645 22.1503 8.24832 21.5891C8.03747 21.0465 7.89365 20.4264 7.85187 19.5179C7.81062 18.6077 7.80031 18.3178 7.80031 16.0002C7.80031 13.6827 7.81098 13.3917 7.85169 12.4814C7.89258 11.5733 8.03658 10.9531 8.24814 10.4103C8.46681 9.84922 8.75837 9.37313 9.23304 8.89881C9.70736 8.42432 10.1834 8.13276 10.7447 7.9148C11.2873 7.70378 11.9074 7.55995 12.8158 7.51835Z" fill="#EFF3FF"/>
<path fill-rule="evenodd" clip-rule="evenodd" d="M15.569 9.00409C15.7176 9.00385 15.8775 9.00393 16.0501 9.004L16.3345 9.00409C18.6129 9.00409 18.883 9.01226 19.7827 9.05315C20.6147 9.0912 21.0663 9.23022 21.3671 9.34702C21.7653 9.50169 22.0492 9.68658 22.3477 9.98525C22.6464 10.2839 22.8313 10.5684 22.9863 10.9666C23.1031 11.267 23.2423 11.7186 23.2802 12.5506C23.3211 13.4502 23.3299 13.7204 23.3299 15.9978C23.3299 18.2751 23.3211 18.5453 23.2802 19.4449C23.2421 20.2769 23.1031 20.7285 22.9863 21.0289C22.8316 21.4271 22.6464 21.7107 22.3477 22.0092C22.049 22.3079 21.7655 22.4928 21.3671 22.6474C21.0666 22.7648 20.6147 22.9034 19.7827 22.9415C18.8831 22.9824 18.6129 22.9913 16.3345 22.9913C14.0559 22.9913 13.7858 22.9824 12.8863 22.9415C12.0543 22.9031 11.6027 22.7641 11.3017 22.6472C10.9035 22.4926 10.6191 22.3077 10.3204 22.009C10.0217 21.7104 9.83683 21.4266 9.6818 21.0282C9.565 20.7278 9.4258 20.2762 9.38793 19.4442C9.34705 18.5446 9.33887 18.2744 9.33887 15.9956C9.33887 13.7168 9.34705 13.448 9.38793 12.5485C9.42598 11.7165 9.565 11.2649 9.6818 10.9641C9.83647 10.5659 10.0217 10.2814 10.3204 9.98276C10.6191 9.68409 10.9035 9.4992 11.3017 9.34418C11.6025 9.22684 12.0543 9.08818 12.8863 9.04995C13.6735 9.0144 13.9786 9.00373 15.569 9.00195V9.00409ZM20.8894 10.4206C20.3241 10.4206 19.8654 10.8787 19.8654 11.4443C19.8654 12.0096 20.3241 12.4683 20.8894 12.4683C21.4547 12.4683 21.9134 12.0096 21.9134 11.4443C21.9134 10.8789 21.4547 10.4202 20.8894 10.4202V10.4206ZM11.9523 15.9988C11.9523 13.5787 13.9144 11.6166 16.3344 11.6165C18.7545 11.6165 20.7161 13.5787 20.7161 15.9988C20.7161 18.4189 18.7547 20.3802 16.3346 20.3802C13.9145 20.3802 11.9523 18.4189 11.9523 15.9988Z" fill="#EFF3FF"/>
<path fill-rule="evenodd" clip-rule="evenodd" d="M16.3342 13.1553C17.9051 13.1553 19.1787 14.4287 19.1787 15.9997C19.1787 17.5706 17.9051 18.8442 16.3342 18.8442C14.7632 18.8442 13.4897 17.5706 13.4897 15.9997C13.4897 14.4287 14.7632 13.1553 16.3342 13.1553V13.1553Z" fill="#EFF3FF"/>
</svg>
